<?xml version="1.0" standalone="no"?><!DOCTYPE svg PUBLIC "-//W3C//DTD SVG 1.1//EN" "http://www.w3.org/Graphics/SVG/1.1/DTD/svg11.dtd"><svg class="icon" width="32px" height="32.00px" viewBox="0 0 1024 1024" version="1.1" xmlns="http://www.w3.org/2000/svg"><path fill="#333333" d="M512 954.2c-245.4 0-445.1-199.6-445.2-445 0-118.9 46.2-230.7 130.3-314.8S392.9 63.9 511.8 63.9h0.2c245.4 0 445.1 199.6 445.2 445 0.1 118.9-46.2 230.7-130.3 314.8S631.1 954.2 512.2 954.2h-0.2z m0-850.5h-0.2c-108.3 0-210 42.2-286.6 118.8-76.5 76.6-118.6 178.4-118.6 286.6 0.1 223.4 181.9 405.1 405.3 405.1h0.2c108.3 0 210-42.2 286.6-118.8 76.5-76.6 118.6-178.4 118.6-286.6-0.1-223.3-181.9-405.1-405.3-405.1z"  /><path fill="#333333" d="M512 582.1c-84.2 0-152.8-68.5-152.8-152.8 0-40.8 15.9-79.2 44.7-108.1 28.9-28.9 67.2-44.8 108.1-44.8h0.1c84.2 0 152.8 68.5 152.8 152.8 0 33.4-10.5 65.1-30.5 91.7-29.3 38.9-73.8 61.2-122.4 61.2z m0-265.7c-0.1 0-0.1 0 0 0-30.2 0-58.6 11.8-79.9 33.1-21.3 21.3-33.1 49.7-33.1 79.9 0 62.3 50.7 112.9 113 112.9 35.9 0 68.8-16.5 90.4-45.2 14.8-19.7 22.6-43.1 22.5-67.8 0-62.3-50.7-112.9-112.9-112.9z"  /><path fill="#333333" d="M704.8 886.1l-0.1-255.9c0-50.7-39.6-94.3-90-99.2l3.9-39.7c70.6 6.9 126 67.8 126 138.8l0.1 255.9-39.9 0.1zM279.6 886.2l-0.1-255.9c0-71.8 53.8-131.5 125.3-138.9l4.1 39.7c-50.2 5.2-89.5 48.7-89.5 99.2l0.1 255.9h-39.9z"  /></svg>